<?xml version="1.0" encoding="UTF-8"?>
<svg id="Layer_1" data-name="Layer 1" xmlns="http://www.w3.org/2000/svg" viewBox="0 0 320 39.99">
  <defs>
    <style>
      .cls-1 {
        fill: #000;
        stroke-width: 0px;
      }
    </style>
  </defs>
  <path class="cls-1" d="M63.17,2.65c-2.64-1.67-5.81-2.5-9.53-2.5s-6.87.84-9.46,2.5c-2.59,1.67-4.62,3.94-6.09,6.81s-2.2,6.37-2.2,10.51.73,7.71,2.2,10.44c1.47,2.92,3.5,5.22,6.09,6.91s5.74,2.54,9.46,2.54,6.89-.85,9.53-2.54c2.64-1.69,4.69-4,6.16-6.91,1.47-3.15,2.2-6.63,2.2-10.44s-.73-7.22-2.2-10.51c-1.47-2.87-3.52-5.14-6.16-6.81ZM64.85,28.01c-1.06,2.4-2.47,4.29-4.23,5.68-1.77,1.39-4.09,2.08-6.98,2.08s-5.14-.69-6.88-2.08c-1.74-1.39-3.16-3.28-4.26-5.68-1.06-2.12-1.58-4.8-1.58-8.04s.53-5.88,1.58-8.04c1.1-2.35,2.52-4.22,4.26-5.61,1.74-1.39,4.04-2.08,6.88-2.08,5.14,0,8.87,2.56,11.21,7.69,1.1,2.4,1.65,5.08,1.65,8.04s-.55,5.69-1.65,8.04ZM262.03,18.77c1.54-1.88,2.33-4.14,2.37-6.77,0-2.68-.62-4.95-1.86-6.81s-2.96-3.19-5.16-3.99c-.78-.19-1.57-.34-2.37-.46-.8-.12-2.1-.18-3.89-.18h-11.9v38.8h4.54v-16.08h7.22l10.32,16.08h5.16l-10.73-16.72c2.66-.71,4.76-2,6.29-3.88h0ZM248.72,19.19c-1.47,0-3.12-.07-4.95-.21V4.52h4.95c2.52,0,4.13.09,4.82.28,1.93.19,3.46.87,4.61,2.05s1.72,2.8,1.72,4.87-.48,3.73-1.44,4.83c-.96,1.11-2.22,1.82-3.78,2.15s-3.53.49-5.92.49h0ZM18.16,1.2c-.78-.19-1.57-.34-2.37-.46s-2.1-.18-3.89-.18H0v38.8h4.54v-16.23c1.1.09,2.61.14,4.54.14,1.7,0,3.39-.09,5.09-.28s3.03-.45,3.99-.78c2.06-.7,3.73-1.95,4.99-3.74s1.94-3.95,2.03-6.49c0-2.68-.62-4.95-1.86-6.81s-2.96-3.19-5.16-3.99v.02ZM19.19,16.54c-.96,1.11-2.22,1.82-3.78,2.15s-3.53.49-5.92.49c-1.47,0-3.12-.07-4.95-.21V4.52h4.95c2.52,0,4.13.09,4.82.28,1.93.19,3.46.87,4.61,2.05,1.15,1.18,1.72,2.8,1.72,4.87s-.48,3.73-1.44,4.83h-.01ZM102.3,35.7c-3.21,0-6.03-.68-8.46-2.05-2.2-1.32-3.94-3.16-5.23-5.54-1.28-2.37-1.93-5.14-1.93-8.29s.56-6.05,1.69-8.43c1.12-2.37,2.74-4.2,4.85-5.47,2.02-1.13,4.82-1.69,8.39-1.69,1.79,0,3.31.13,4.58.39,1.26.26,2.72.67,4.37,1.23l1.31-3.81c-2.39-.8-4.13-1.32-5.23-1.55-1.65-.33-3.76-.49-6.33-.49s-5.11.54-7.77,1.62c-2.29.94-4.26,2.28-5.92,4.02-1.56,1.6-2.78,3.61-3.65,6.03-.87,2.42-1.31,5.16-1.31,8.22,0,5.97,1.72,10.79,5.16,14.46,1.65,1.69,3.69,3.06,6.12,4.09s5.09,1.55,7.98,1.55c4.22,0,8-.85,11.35-2.54l-1.1-3.67c-3.26,1.27-6.22,1.9-8.87,1.9v.02ZM320,4.52V.56h-22.15v38.8h22.15v-4.09h-17.61v-13.97h16.24v-4.02h-16.24V4.52h17.61ZM279.45,39.37h4.47V.56h-4.47v38.8h0ZM164.04,39.37h22.15v-4.09h-17.61v-13.97h16.23v-4.02h-16.23V4.52h17.61V.56h-22.15v38.8h0ZM197.34,4.52h12.52v34.85h4.54V4.52h12.73V.56h-29.79v3.95h0ZM125.76,19.54l4.54-5.48V.56h-4.54v18.98ZM146.95.56l-16.08,19.4,16.08,19.4h5.78l-16.52-19.4L152.73.56h-5.78ZM125.76,39.37h4.54v-13.5l-4.54-5.48v18.98Z"/>
</svg>